<?xml version="1.0" encoding="UTF-8"?> <svg xmlns="http://www.w3.org/2000/svg" width="1000" height="276" viewBox="0 0 1000 276"><g transform="translate(-1949 682)"><rect width="1000" height="276" transform="translate(1949 -682)" fill="none"></rect><g transform="translate(1917.791 -900.552)"><path d="M64.817,304.567v1.793c0,3.863,1.517,7.038,4.276,8.277,1.793.969,3.863,1.382,9.1,1.382h38.494c8.829,0,12.277-2.486,12.277-8.556,0-7.449-3.587-8.415-25.386-8.691l-24.141-.414c-23.04-.414-30.9-1.517-37.39-6.208-5.518-4.276-7.722-11.177-7.722-24.558,0-13.657,2.2-20,8.829-24.558,7.863-5.518,13.93-6.484,41.8-6.484,43.181,0,46.768.138,54.5,2.345,4.963,1.38,10.07,4.69,12.415,8.139,2.759,3.863,4.138,9.383,4.138,17.936v4H125.934v-2.345c-.414-5.518-3.725-7.725-12.14-7.725H78.753c-9.932,0-13.8,2.345-13.8,8.277,0,2.9,1.106,5.1,3.173,6.07,2.9,1.242,5.656,1.379,23.04,1.793l22.489.414c21.934.276,25.937.828,31.869,3.311,10.622,4.141,14.623,12,14.623,28.42,0,15.729-3.035,22.489-12.829,26.9-7.173,3.311-16.281,4.414-35.87,4.414-57.807,0-60.014-.138-67.88-5.656C36.534,328.021,34.6,322.5,34.6,306.774v-2.207Z" transform="translate(5.849)" fill="#161615"></path><path d="M84.489,236.936H193.615v23.316h-78.5v15.726h74.36v20.7h-74.36v16.14h80.157v23.868H84.489Z" transform="translate(99.844 0.72)" fill="#161615"></path><path d="M181.584,236.936h39.87l54.769,99.746H241.871l-9.516-17.8H170.407l-8.967,17.8h-33.8Zm39.594,60.7-19.868-37.663-19.727,37.663Z" transform="translate(180.706 0.72)" fill="#161615"></path><path d="M185,236.936h92.162c9.794,0,18.485,2.207,23.451,5.932,6.208,4.552,8.829,10.9,8.829,21.8,0,12.277-4.276,18.347-14.761,21.247v.414c13.243,1.928,18.209,8.139,18.209,23.038,0,11.174-3.449,19.04-10.346,23.316-4.138,2.759-11.864,4-22.624,4H185Zm81.54,39.594c8.967,0,11.864-2.069,11.864-8.277,0-5.794-2.9-7.725-11.864-7.725H215.63v16ZM215.63,313.366h55.183c8.142,0,10.622-1.931,10.622-8,0-6.622-2.621-8.691-11.864-8.691H215.63Z" transform="translate(288.194 0.72)" fill="#161615"></path><path d="M285.839,236.936h39.87l54.769,99.746H346.126l-9.516-17.8H274.662l-8.967,17.8H231.9Zm39.594,60.7-19.868-37.663-19.727,37.663Z" transform="translate(376.074 0.72)" fill="#161615"></path><path d="M316.479,304.567v1.793c0,3.863,1.517,7.038,4.276,8.277,1.793.969,3.863,1.382,9.1,1.382h38.494c8.829,0,12.277-2.486,12.277-8.556,0-7.449-3.587-8.415-25.386-8.691l-24.141-.414c-23.04-.414-30.9-1.517-37.39-6.208-5.518-4.276-7.722-11.177-7.722-24.558,0-13.657,2.2-20,8.829-24.558,7.863-5.518,13.933-6.484,41.8-6.484,43.181,0,46.768.138,54.5,2.345,4.963,1.38,10.07,4.69,12.415,8.139,2.759,3.863,4.141,9.383,4.141,17.936v4H377.6v-2.345c-.414-5.518-3.725-7.725-12.14-7.725H330.415c-9.932,0-13.8,2.345-13.8,8.277,0,2.9,1.106,5.1,3.173,6.07,2.9,1.242,5.656,1.379,23.04,1.793l22.489.414c21.934.276,25.937.828,31.869,3.311,10.622,4.141,14.623,12,14.623,28.42,0,15.729-3.035,22.489-12.829,26.9-7.173,3.311-16.281,4.414-35.87,4.414-57.806,0-60.014-.138-67.877-5.656-7.038-4.828-8.97-10.349-8.97-26.075v-2.207Z" transform="translate(477.449)" fill="#161615"></path><path d="M365.873,304.567v1.793c0,3.863,1.517,7.038,4.276,8.277,1.793.969,3.863,1.382,9.1,1.382h38.491c8.832,0,12.28-2.486,12.28-8.556,0-7.449-3.587-8.415-25.386-8.691l-24.141-.414c-23.04-.414-30.9-1.517-37.39-6.208-5.518-4.276-7.725-11.177-7.725-24.558,0-13.657,2.207-20,8.832-24.558,7.863-5.518,13.93-6.484,41.8-6.484,43.184,0,46.77.138,54.5,2.345,4.966,1.38,10.07,4.69,12.418,8.139,2.759,3.863,4.136,9.383,4.136,17.936v4H426.987v-2.345c-.411-5.518-3.725-7.725-12.137-7.725H379.806c-9.932,0-13.795,2.345-13.795,8.277,0,2.9,1.1,5.1,3.173,6.07,2.9,1.242,5.656,1.379,23.04,1.793l22.489.414c21.934.276,25.935.828,31.869,3.311,10.622,4.141,14.623,12,14.623,28.42,0,15.729-3.035,22.489-12.829,26.9-7.173,3.311-16.281,4.414-35.872,4.414-57.8,0-60.014-.138-67.877-5.656-7.035-4.828-8.967-10.349-8.967-26.075v-2.207Z" transform="translate(570.005)" fill="#161615"></path><path d="M65.009,284.936,103.5,358.883l39.456-73.946h32.973L122.54,384.682h-37.8L31.209,284.936Z" transform="translate(0 90.669)" fill="#161615"></path><path d="M117.086,284.936v99.746H86.458V284.936Z" transform="translate(103.534 90.669)" fill="#161615"></path><path d="M103.018,284.936H150.34l57.666,72.843V284.936h30.63v99.746H190.9l-57.255-72.015v72.015H103.018Z" transform="translate(134.566 90.669)" fill="#161615"></path><path d="M208.936,384.682V349.226l-54.223-64.29h36.976l33.249,40.7,34.352-40.7h36.422L239.56,349.778v34.9Z" transform="translate(231.439 90.669)" fill="#161615"></path><path d="M208.137,284.936h30.628v74.222H307.61v25.523H208.137Z" transform="translate(331.553 90.669)" fill="#161615"></path></g></g></svg> 