<svg width="168" height="46" viewBox="0 0 168 46" fill="none" xmlns="http://www.w3.org/2000/svg">
							<path d="M9.69961 13.4508C9.69961 13.9508 9.29961 14.4508 8.69961 14.4508C8.09961 14.4508 7.59961 14.0508 7.69961 13.4508C7.69961 12.9508 8.09961 12.4508 8.69961 12.4508C9.19961 12.4508 9.69961 12.8508 9.69961 13.4508Z" fill="#151515"></path>
							<path d="M24.0996 33.8508C24.5996 33.8508 25.0996 33.4508 25.0996 32.8508C25.0996 32.2508 24.5996 31.7508 24.0996 31.8508C23.5996 31.8508 23.0996 32.2508 23.0996 32.8508C23.0996 33.3508 23.4996 33.8508 24.0996 33.8508Z" fill="#151515"></path>
							<path fill-rule="evenodd" clip-rule="evenodd" d="M23.7996 11.2508C29.1996 14.5508 32.5996 20.5508 32.5996 27.0508C32.5996 30.3508 31.6996 33.5508 29.9996 36.3508C28.3996 39.1508 26.0996 41.5508 23.2996 43.1508C17.6996 46.4508 10.5996 46.4508 4.99961 43.1508L4.39961 42.8508L8.89961 35.0508C3.49961 31.7508 0.0996094 25.7508 0.0996094 19.2508C0.0996094 15.9508 0.99961 12.7508 2.59961 9.95078C4.19961 7.15078 6.49961 4.75078 9.29961 3.15078C14.9996 -0.149219 21.9996 -0.149219 27.6996 3.15078L28.2996 3.45078L23.7996 11.2508ZM26.8996 28.5508C28.4996 28.1508 29.9996 27.5508 31.4996 26.7508C31.3996 20.8508 28.1996 15.2508 23.2996 12.1508L19.3996 19.0508C22.8996 21.2508 25.4996 24.6508 26.8996 28.5508ZM25.7996 28.6508C24.4996 25.0508 21.9996 22.0508 18.7996 19.9508L14.8996 26.7508C18.1996 28.5508 22.0996 29.2508 25.7996 28.6508ZM6.59961 16.5508C10.6996 15.8508 14.7996 16.5508 18.3996 18.5508L22.2996 11.6508C14.3996 7.45078 7.29961 11.0508 5.89961 11.8508C5.89961 13.4508 6.19961 15.0508 6.59961 16.5508ZM13.9996 26.2508L17.8996 19.4508C14.4996 17.6508 10.6996 16.9508 6.99961 17.5508C8.29961 21.1508 10.7996 24.1508 13.9996 26.2508ZM26.0996 29.7508C21.9996 30.4508 17.8996 29.7508 14.2996 27.7508L10.3996 34.6508C18.2996 38.8508 25.3996 35.2508 26.7996 34.4508C26.7996 32.8508 26.4996 31.2508 26.0996 29.7508ZM26.7996 3.85078C21.5996 0.950782 15.0996 1.05078 9.89961 4.05078C7.19961 5.65078 5.09961 7.85078 3.59961 10.4508C2.19961 12.8508 1.39961 15.5508 1.29961 18.2508C2.59961 17.5508 3.99961 17.0508 5.49961 16.7508C5.09961 15.0508 4.79961 13.3508 4.79961 11.5508V11.2508L5.09961 11.0508C5.10646 11.0508 5.15222 11.0259 5.23452 10.9812C6.35417 10.3733 14.2364 6.09314 22.8996 10.7508L26.7996 3.85078ZM5.79961 17.6508C4.19961 18.0508 2.69961 18.6508 1.19961 19.4508C1.29961 25.4508 4.49961 30.9508 9.39961 34.0508L13.2996 27.1508C9.79961 24.9508 7.19961 21.5508 5.79961 17.6508ZM5.99961 42.3508C11.1996 45.2508 17.6996 45.1508 22.8996 42.1508C25.4996 40.6508 27.6996 38.4508 29.1996 35.6508C30.5996 33.2508 31.3996 30.5508 31.4996 27.8508C30.0996 28.5508 28.6996 29.1508 27.1996 29.4508C27.5996 31.1508 27.8996 32.8508 27.8996 34.6508V34.9508L27.6996 35.1508C27.6923 35.1544 27.6743 35.1648 27.6457 35.1811C26.8883 35.6151 18.7654 40.2692 9.89961 35.4508L5.99961 42.3508Z" fill="#151515"></path>
							<path d="M50.2 17.0508V16.8508L46.6 16.7508V17.0508C46.6 18.9508 46.8 19.6508 47.7 20.2508C48.6 20.9508 48.9 20.9508 56 20.9508C58.4 20.9508 59.5 20.8508 60.4 20.4508C61.6 19.9508 62 19.1508 62 17.1508C62 15.1508 61.5 14.1508 60.2 13.6508C59.5 13.3508 59 13.2508 56.3 13.2508H53.5C51.4 13.2508 51.1 13.2508 50.7 13.0508C50.4 12.9508 50.3 12.7508 50.3 12.3508C50.3 11.6508 50.8 11.3508 52 11.3508H56.1C57.1 11.3508 57.6 11.5508 57.6 12.2508V12.5508H61.3V12.0508C61.3 10.9508 61.1 10.3508 60.8 9.85078C60.5 9.45078 59.9 9.05078 59.3 8.85078C58.3 8.55078 57.9 8.55078 52.6 8.55078C49.2 8.55078 48.5 8.65078 47.5 9.35078C46.7 9.85078 46.4 10.7508 46.4 12.3508C46.4 13.9508 46.6 14.8508 47.3 15.3508C48.1 15.9508 49.1 16.1508 51.9 16.1508H54.9C57.6 16.2508 58 16.3508 58 17.2508C58 17.9508 57.6 18.2508 56.5 18.2508H51.8C51.2 18.2508 50.9 18.1508 50.7 18.0508C50.4 17.9508 50.2 17.5508 50.2 17.0508Z" fill="#151515"></path>
							<path d="M64.2 8.65078H77.5V11.5508H67.9V13.4508H77V15.9508H68V17.9508H77.8V20.8508H64.2V8.65078Z" fill="#151515"></path>
							<path fill-rule="evenodd" clip-rule="evenodd" d="M90.9 8.65078H86L79.4 20.8508H83.5L84.6 18.6508H92.2L93.4 20.8508H97.6L90.9 8.65078ZM88.4 11.4508L90.8 16.0508H86L88.4 11.4508Z" fill="#151515"></path>
							<path fill-rule="evenodd" clip-rule="evenodd" d="M99.6 8.65078H110.9C112.1 8.65078 113.2 8.85078 113.8 9.35078C114.6 9.95078 114.9 10.7508 114.9 12.0508C114.9 13.5508 114.4 14.2508 113.1 14.6508C114.7 14.8508 115.3 15.6508 115.3 17.4508C115.3 18.8508 114.8 19.8508 114 20.3508C113.5 20.6508 112.5 20.8508 111.2 20.8508H99.6V8.65078ZM109.5 13.4508C110.6 13.4508 111 13.2508 111 12.4508C111 11.7508 110.7 11.4508 109.5 11.4508H103.3V13.4508H109.5ZM103.3 17.9508H110.1C111.1 17.9508 111.4 17.7508 111.4 17.0508C111.4 16.2508 111 15.9508 109.9 15.9508H103.3V17.9508Z" fill="#151515"></path>
							<path fill-rule="evenodd" clip-rule="evenodd" d="M127.6 8.65078H122.7L116.1 20.8508H120.2L121.3 18.6508H128.9L130.1 20.8508H134.3L127.6 8.65078ZM125.2 11.4508L127.6 16.0508H122.8L125.2 11.4508Z" fill="#151515"></path>
							<path d="M138.9 16.8508V17.0508C138.9 17.4508 139.1 17.8508 139.5 18.1508C139.7 18.3508 140 18.3508 140.6 18.3508H145.3C146.4 18.3508 146.8 18.0508 146.8 17.3508C146.8 16.4508 146.4 16.2508 143.7 16.2508H140.7C137.9 16.1508 136.9 16.0508 136.1 15.4508C135.5 14.9508 135.2 14.0508 135.2 12.4508C135.2 10.8508 135.5 10.0508 136.3 9.45078C137.2 8.75078 138 8.65078 141.4 8.65078C146.7 8.65078 147.2 8.65078 148.1 8.95078C148.7 9.15078 149.3 9.55078 149.6 9.95078C149.9 10.4508 150.1 11.1508 150.1 12.1508V12.6508H146.4V12.3508C146.3 11.7508 145.9 11.4508 144.9 11.4508H140.6C139.4 11.4508 138.9 11.7508 138.9 12.4508C138.9 12.7508 139 13.0508 139.3 13.1508C139.6 13.2508 140 13.3508 142.1 13.3508H144.9C147.6 13.3508 148.1 13.4508 148.8 13.7508C150.1 14.2508 150.6 15.2508 150.6 17.2508C150.6 19.2508 150.2 20.0508 149 20.5508C148.1 20.9508 147 21.0508 144.6 21.0508C137.5 21.0508 137.3 21.0508 136.3 20.3508C135.4 19.7508 135.2 19.0508 135.2 17.1508V16.8508H138.9Z" fill="#151515"></path>
							<path d="M156.3 17.0508V16.8508L152.6 16.7508V17.0508C152.6 18.9508 152.8 19.6508 153.7 20.2508C154.6 20.9508 154.9 20.9508 162 20.9508C164.4 20.9508 165.5 20.8508 166.4 20.4508C167.6 19.9508 168 19.1508 168 17.1508C168 15.1508 167.5 14.1508 166.2 13.6508C165.5 13.3508 165 13.2508 162.3 13.2508H159.5C157.4 13.2508 157.1 13.2508 156.7 13.0508C156.4 12.9508 156.3 12.7508 156.3 12.3508C156.3 11.6508 156.8 11.3508 158 11.3508H162.2C163.2 11.3508 163.7 11.5508 163.7 12.2508V12.5508H167.4V12.0508C167.4 10.9508 167.2 10.3508 166.9 9.85078C166.6 9.45078 166 9.05078 165.4 8.85078C164.4 8.55078 164 8.55078 158.7 8.55078C155.3 8.55078 154.6 8.65078 153.6 9.35078C152.8 9.85078 152.5 10.7508 152.5 12.3508C152.5 13.9508 152.7 14.8508 153.4 15.3508C154.2 15.9508 155.2 16.1508 158 16.1508H161C163.7 16.2508 164.1 16.3508 164.1 17.2508C164.1 17.9508 163.7 18.2508 162.6 18.2508H157.9C157.3 18.2508 157 18.1508 156.8 18.0508C156.5 17.9508 156.3 17.5508 156.3 17.0508Z" fill="#151515"></path>
							<path d="M49.6 25.4508L54.3 34.5508L59.1 25.5508H63.1L56.6 37.7508H52L45.5 25.4508H49.6Z" fill="#151515"></path>
							<path d="M68.6 37.7508V25.5508H64.8V37.7508H68.6Z" fill="#151515"></path>
							<path d="M70.7 25.5508H76.5L83.6 34.4508V25.5508H87.4V37.7508H81.5L74.5 28.9508V37.7508H70.7V25.5508Z" fill="#151515"></path>
							<path d="M99.4 37.7508H95.6V33.4508L89 25.5508H93.5L97.6 30.5508L101.8 25.5508H106.3L99.4 33.4508V37.7508Z" fill="#151515"></path>
							<path d="M107.7 25.5508H111.5V34.6508H119.9V37.7508H107.7V25.5508Z" fill="#151515"></path>
							</svg> 